<svg width="27" height="27" viewBox="0 0 27 27" fill="none" xmlns="http://www.w3.org/2000/svg">
<path d="M13.7917 0.875C6.66934 0.875 0.875 6.66934 0.875 13.7917C0.875 20.914 6.66934 26.7083 13.7917 26.7083C20.914 26.7083 26.7083 20.914 26.7083 13.7917C26.7083 6.66934 20.914 0.875 13.7917 0.875ZM19.9345 19.9345C19.7326 20.1362 19.459 20.2495 19.1736 20.2495C18.8883 20.2495 18.6146 20.1362 18.4127 19.9345L15.5307 17.0531C14.3131 17.891 12.8264 18.2435 11.3623 18.0417C9.89819 17.8398 8.56236 17.098 7.61696 15.962C6.67156 14.8259 6.18484 13.3776 6.25232 11.9011C6.3198 10.4247 6.9366 9.02678 7.98169 7.98169C9.02678 6.9366 10.4247 6.3198 11.9011 6.25232C13.3776 6.18484 14.8259 6.67156 15.962 7.61696C17.098 8.56236 17.8398 9.89819 18.0417 11.3623C18.2435 12.8264 17.891 14.3131 17.0531 15.5307L19.9345 18.4127C20.1362 18.6146 20.2495 18.8883 20.2495 19.1736C20.2495 19.459 20.1362 19.7326 19.9345 19.9345Z" fill="#575DC2"/>
<path d="M12.1823 16.3646C14.4921 16.3646 16.3646 14.4921 16.3646 12.1823C16.3646 9.87248 14.4921 8 12.1823 8C9.87248 8 8 9.87248 8 12.1823C8 14.4921 9.87248 16.3646 12.1823 16.3646Z" fill="#575DC2"/>
</svg>
